<svg xmlns="http://www.w3.org/2000/svg" width="1280" height="720" viewBox="0 0 1280 720"><defs><style>.ar{font-family:Arial,'Noto Sans Arabic',sans-serif;font-weight:700;fill:#0b3560}.en{font-family:Arial,sans-serif;fill:#355c7d}.s{font-size:12px}.m{font-size:16px}.b{font-size:25px}.w{fill:#fff}.muted{fill:#7c94aa}.card{fill:#fff;stroke:#dbe6f0}.input{fill:#fbfdff;stroke:#cdddea}.nav{fill:#07345d}.blue{fill:#0b4f7d}</style><linearGradient id="h"><stop stop-color="#0b4e78"/><stop offset="1" stop-color="#082f55"/></linearGradient></defs><rect width="1280" height="720" fill="#f4f8fc"/><rect width="1280" height="70" fill="url(#h)"/><rect x="1110" y="70" width="170" height="650" class="nav"/><line x1="1110" y1="70" x2="1110" y2="720" stroke="#16a6d9" stroke-width="4"/><text x="1200" y="30" text-anchor="middle" class="ar m w">بوابة تكامل الخدمات الحكومية</text><text x="1200" y="50" text-anchor="middle" class="en s w">Government Services Integration Portal</text><text x="640" y="32" text-anchor="middle" class="ar s w">معاً نحو حكومة رقمية أكثر ذكاءً</text><text x="640" y="50" text-anchor="middle" class="en s w">Towards a Smarter Digital Kuwait</text><g text-anchor="middle"><rect x="1120" y="84" width="150" height="54" rx="7" fill="#0b5f91"/><text x="1195" y="106" class="ar m w">الرئيسية</text><text x="1195" y="126" class="en s w">Home</text><text x="1195" y="180" class="ar m w">الجهات</text><text x="1195" y="198" class="en s w">Entities</text><text x="1195" y="245" class="ar m w">الخدمات</text><text x="1195" y="263" class="en s w">Services</text><text x="1195" y="310" class="ar m w">الطلبات</text><text x="1195" y="328" class="en s w">Requests</text><text x="1195" y="375" class="ar m w">سجل التدقيق</text><text x="1195" y="393" class="en s w">Audit Logs</text><text x="1195" y="440" class="ar m w">الصلاحيات</text><text x="1195" y="458" class="en s w">Permissions</text><text x="1195" y="505" class="ar m w">الإعدادات</text><text x="1195" y="523" class="en s w">Settings</text></g><text x="45" y="112" class="ar b">تنفيذ الخدمة</text><text x="45" y="135" class="en m">Service Execution</text><text x="45" y="157" class="en s muted">Services / Ministry of Justice / Service Execution</text><rect x="410" y="88" width="330" height="75" rx="8" class="card"/><text x="430" y="112" class="ar s">الجهة / Entity</text><text x="430" y="142" class="ar m">وزارة العدل (MOJ)</text><rect x="755" y="88" width="330" height="75" rx="8" class="card"/><text x="775" y="112" class="ar s">الخدمة / Service</text><text x="775" y="142" class="ar m">خدمة قضايا الزواج</text><rect x="45" y="183" width="700" height="308" rx="9" class="card"/><text x="70" y="218" class="ar b">بيانات الطلب</text><text x="70" y="240" class="en m">Request Data</text><text x="705" y="220" text-anchor="end" class="ar s muted">الحقول تتغير تلقائياً حسب الخدمة المختارة</text><text x="60" y="276" class="ar s">الرقم المدني للزوج *</text><rect x="60" y="288" width="315" height="44" rx="7" class="input"/><text x="350" y="315" text-anchor="end" class="en m">281010100123</text><text x="405" y="276" class="ar s">الرقم المدني للزوجة *</text><rect x="405" y="288" width="315" height="44" rx="7" class="input"/><text x="695" y="315" text-anchor="end" class="en m">292020200456</text><text x="405" y="367" class="ar s">رقم القضية *</text><rect x="405" y="379" width="315" height="44" rx="7" class="input"/><text x="695" y="406" text-anchor="end" class="en m">2024/12345</text><rect x="60" y="435" width="220" height="42" rx="7" class="blue"/><text x="170" y="459" text-anchor="middle" class="ar m w">تنفيذ الاستعلام</text><text x="170" y="474" text-anchor="middle" class="en s w">Run Request</text><rect x="760" y="183" width="325" height="308" rx="9" class="card"/><text x="790" y="218" class="ar b">معلومات الخدمة المختارة</text><text x="790" y="240" class="en m">Selected Service Information</text><circle cx="810" cy="285" r="32" fill="#eef5fb"/><text x="810" y="292" text-anchor="middle" class="b">⚖</text><text x="855" y="278" class="ar m">خدمة قضايا الزواج</text><text x="855" y="300" class="en s">Marriage Cases Service</text><text x="790" y="338" class="ar s">الجهة</text><text x="900" y="338" class="en s">Ministry of Justice (MOJ)</text><text x="790" y="370" class="ar s">نوع المصادقة</text><rect x="900" y="352" width="78" height="28" rx="14" fill="#e0f1ff"/><text x="939" y="370" text-anchor="middle" class="en s">API Key</text><rect x="983" y="352" width="82" height="28" rx="14" fill="#eee5ff"/><text x="1024" y="370" text-anchor="middle" class="en s">Bearer</text><text x="790" y="408" class="ar s">Request Method</text><rect x="915" y="390" width="54" height="27" rx="13" fill="#dff5e5"/><text x="942" y="408" text-anchor="middle" class="en s">POST</text><text x="790" y="447" class="ar s">Endpoint URL</text><rect x="880" y="426" width="185" height="32" rx="6" class="input"/><text x="890" y="447" class="en s">/marriagecasesAPIGEE</text><rect x="45" y="506" width="1040" height="190" rx="9" class="card"/><line x1="45" y1="552" x2="1085" y2="552" stroke="#dbe6f0"/><text x="120" y="535" class="ar m">النتيجة</text><text x="120" y="549" class="en s">Result</text><text x="430" y="535" class="ar m">الاستجابة الخام</text><text x="430" y="549" class="en s">Raw Response</text><text x="750" y="535" class="ar m">التاريخ</text><text x="750" y="549" class="en s">History</text><rect x="62" y="570" width="640" height="46" rx="7" fill="#e7f8ee"/><text x="82" y="592" class="ar m" fill="#16844d">تم تنفيذ الطلب بنجاح</text><text x="82" y="610" class="en s">Request executed successfully</text><rect x="62" y="628" width="470" height="54" rx="6" class="input"/><text x="82" y="650" class="ar s">رقم القضية: 2024/12345 — الحالة: مكتملة</text><text x="82" y="670" class="en s">Case Number / Status / Court / Parties</text><rect x="720" y="570" width="345" height="112" rx="7" fill="#f8fbfe" stroke="#dbe6f0"/><text x="740" y="594" class="ar m">معلومات الطلب</text><text x="740" y="616" class="en s">Request Metadata</text><text x="740" y="642" class="en s">REQ-20260908-000123 · HTTP 200</text><text x="740" y="664" class="en s">1.28s · Executed by Ahmed Mohammed</text></svg>