<svg xmlns="http://www.w3.org/2000/svg" width="1280" height="720" viewBox="0 0 1280 720"><defs><style>.ar{font-family:Arial,'Noto Sans Arabic',sans-serif;font-weight:700;fill:#0b3560}.en{font-family:Arial,sans-serif;fill:#355c7d}.s{font-size:11px}.m{font-size:15px}.b{font-size:24px}.w{fill:#fff}.muted{fill:#7890a5}.card{fill:#fff;stroke:#dbe6f0}.line{stroke:#e4ebf2}.green{fill:#1aa363}.red{fill:#dc4656}.amber{fill:#e99a13}.blue{fill:#0b6fb2}</style><linearGradient id="h"><stop stop-color="#0b4e78"/><stop offset="1" stop-color="#082f55"/></linearGradient></defs><rect width="1280" height="720" fill="#f4f8fc"/><rect width="1280" height="70" fill="url(#h)"/><rect x="1110" y="70" width="170" height="650" fill="#07345d"/><line x1="1110" y1="70" x2="1110" y2="720" stroke="#16a6d9" stroke-width="4"/><text x="1200" y="30" text-anchor="middle" class="ar m w">بوابة تكامل الخدمات الحكومية</text><text x="1200" y="50" text-anchor="middle" class="en s w">Government Services Integration Portal</text><g text-anchor="middle"><text x="1195" y="116" class="ar m w">الرئيسية</text><text x="1195" y="134" class="en s w">Home</text><text x="1195" y="185" class="ar m w">الجهات</text><text x="1195" y="203" class="en s w">Entities</text><text x="1195" y="254" class="ar m w">الخدمات</text><text x="1195" y="272" class="en s w">Services</text><text x="1195" y="323" class="ar m w">الطلبات</text><text x="1195" y="341" class="en s w">Requests</text><rect x="1120" y="360" width="150" height="60" rx="7" fill="#0b5f91"/><text x="1195" y="385" class="ar m w">سجل التدقيق</text><text x="1195" y="405" class="en s w">Audit Logs</text><text x="1195" y="460" class="ar m w">الصلاحيات</text><text x="1195" y="478" class="en s w">Permissions</text><text x="1195" y="530" class="ar m w">الإعدادات</text><text x="1195" y="548" class="en s w">Settings</text></g><text x="38" y="111" class="ar b">سجل التدقيق والمراقبة</text><text x="38" y="136" class="en m">Audit Log &amp; Monitoring</text><text x="38" y="156" class="en s muted">Track service usage, requests, security events and privileged actions.</text><text x="1020" y="107" text-anchor="end" class="ar m">الثلاثاء، 8 سبتمبر 2026</text><text x="1020" y="128" text-anchor="end" class="en s">Tuesday, September 8, 2026</text><!-- KPIs --><g><rect x="390" y="88" width="160" height="76" rx="8" class="card"/><circle cx="420" cy="126" r="20" fill="#e5f2ff"/><text x="455" y="118" class="ar m">156</text><text x="455" y="140" class="en s">Total Requests</text><rect x="565" y="88" width="160" height="76" rx="8" class="card"/><circle cx="595" cy="126" r="20" fill="#e1f7ea"/><text x="630" y="118" class="ar m">142</text><text x="630" y="140" class="en s">Successful Calls</text><rect x="740" y="88" width="160" height="76" rx="8" class="card"/><circle cx="770" cy="126" r="20" fill="#fde5e8"/><text x="805" y="118" class="ar m">12</text><text x="805" y="140" class="en s">Failed Calls</text><rect x="915" y="88" width="170" height="76" rx="8" class="card"/><circle cx="945" cy="126" r="20" fill="#fff0d9"/><text x="980" y="118" class="ar m">2</text><text x="980" y="140" class="en s">Security Alerts</text></g><!-- filters --><rect x="38" y="178" width="1047" height="82" rx="8" class="card"/><rect x="50" y="198" width="100" height="42" rx="6" fill="#0b4f7d"/><text x="100" y="224" text-anchor="middle" class="ar m w">بحث</text><g class="en s"><rect x="165" y="198" width="150" height="42" rx="6" class="card"/><text x="180" y="223">Request ID</text><rect x="325" y="198" width="125" height="42" rx="6" class="card"/><text x="340" y="223">Action Type</text><rect x="460" y="198" width="120" height="42" rx="6" class="card"/><text x="475" y="223">Status</text><rect x="590" y="198" width="125" height="42" rx="6" class="card"/><text x="605" y="223">User</text><rect x="725" y="198" width="140" height="42" rx="6" class="card"/><text x="740" y="223">Service</text><rect x="875" y="198" width="195" height="42" rx="6" class="card"/><text x="890" y="223">Date Range</text></g><!-- chart/security cards --> <rect x="38" y="275" width="510" height="185" rx="8" class="card"/><text x="55" y="302" class="ar m">حجم الطلبات خلال اليوم</text><text x="55" y="320" class="en s">Request Volume Throughout the Day</text><line x1="65" y1="425" x2="520" y2="425" class="line"/><line x1="65" y1="345" x2="65" y2="425" class="line"/><polyline points="65,410 105,395 145,400 185,378 225,365 265,374 305,340 345,320 385,335 425,305 465,360 515,370" fill="none" stroke="#0b75bd" stroke-width="3"/><g fill="#0b75bd"><circle cx="65" cy="410" r="4"/><circle cx="105" cy="395" r="4"/><circle cx="185" cy="378" r="4"/><circle cx="305" cy="340" r="4"/><circle cx="425" cy="305" r="4"/><circle cx="515" cy="370" r="4"/></g><rect x="563" y="275" width="522" height="185" rx="8" class="card"/><text x="580" y="302" class="ar m">تنبيهات ومؤشرات أمنية</text><text x="580" y="320" class="en s">Security &amp; Audit Indicators</text><g text-anchor="middle"><rect x="580" y="337" width="110" height="96" rx="7" fill="#fff3f4"/><text x="635" y="365" class="red m">3</text><text x="635" y="387" class="en s">Suspicious</text><text x="635" y="403" class="en s">Activity</text><rect x="700" y="337" width="110" height="96" rx="7" fill="#fff7ea"/><text x="755" y="365" class="amber m">8</text><text x="755" y="387" class="en s">Repeated</text><text x="755" y="403" class="en s">Failures</text><rect x="820" y="337" width="110" height="96" rx="7" fill="#f1ebff"/><text x="875" y="365" class="m" fill="#7147c8">1</text><text x="875" y="387" class="en s">User</text><text x="875" y="403" class="en s">Lockout</text><rect x="940" y="337" width="125" height="96" rx="7" fill="#edf6ff"/><text x="1002" y="365" class="blue m">4</text><text x="1002" y="387" class="en s">Export</text><text x="1002" y="403" class="en s">Events</text></g><!-- log table --> <rect x="38" y="475" width="735" height="222" rx="8" class="card"/><text x="55" y="502" class="ar m">سجل التدقيق</text><text x="55" y="520" class="en s">Audit Log · Total 156 records</text><line x1="38" y1="535" x2="773" y2="535" class="line"/><g class="en s"><text x="52" y="553">Timestamp</text><text x="170" y="553">Source IP</text><text x="258" y="553">Request ID</text><text x="390" y="553">User</text><text x="485" y="553">Service</text><text x="640" y="553">Status</text><text x="700" y="553">Outcome</text></g><g class="line"><line x1="38" y1="568" x2="773" y2="568"/><line x1="38" y1="596" x2="773" y2="596"/><line x1="38" y1="624" x2="773" y2="624"/><line x1="38" y1="652" x2="773" y2="652"/><line x1="38" y1="680" x2="773" y2="680"/></g><g class="en s"><text x="52" y="585">14:32:18</text><text x="170" y="585">10.20.30.15</text><text x="258" y="585">REQ-45821</text><text x="390" y="585">Ahmed</text><text x="485" y="585">Marriage Cases</text><text x="640" y="585">200</text><text x="700" y="585" class="green">Success</text><text x="52" y="613">14:28:05</text><text x="170" y="613">10.20.31.77</text><text x="258" y="613">REQ-45820</text><text x="390" y="613">Sara</text><text x="485" y="613">Is Single</text><text x="640" y="613">200</text><text x="700" y="613" class="green">Success</text><text x="52" y="641">14:15:42</text><text x="170" y="641">185.112.12.8</text><text x="258" y="641">REQ-45819</text><text x="390" y="641">Nawaf</text><text x="485" y="641">Marriage Cases</text><text x="640" y="641">401</text><text x="700" y="641" class="red">Failed</text></g><!-- detail drawer --><rect x="790" y="475" width="295" height="222" rx="8" class="card"/><text x="808" y="502" class="ar m">تفاصيل السجل</text><text x="808" y="520" class="en s">Log Details</text><rect x="1000" y="487" width="65" height="25" rx="12" fill="#e4f7e9"/><text x="1032" y="503" text-anchor="middle" class="en s green">Success</text><text x="808" y="548" class="en s">Request ID</text><text x="900" y="548" class="en s">REQ-20260908-45821</text><text x="808" y="570" class="en s">User</text><text x="900" y="570" class="en s">Ahmed Mohammed</text><text x="808" y="592" class="en s">Entity</text><text x="900" y="592" class="en s">MOJ</text><text x="808" y="614" class="en s">Service</text><text x="900" y="614" class="en s">Marriage Cases</text><text x="808" y="636" class="en s">Status</text><text x="900" y="636" class="en s">200 · 320 ms</text><rect x="808" y="650" width="257" height="34" rx="6" fill="#0b4f7d"/><text x="937" y="671" text-anchor="middle" class="en s w">View Masked Request / Response</text></svg>